<svg width="25" height="24" viewBox="0 0 25 24" fill="none" xmlns="http://www.w3.org/2000/svg">
<path fill-rule="evenodd" clip-rule="evenodd" d="M13.2071 2.29289C12.8166 1.90237 12.1834 1.90237 11.7929 2.29289L7.14891 6.93687C5.45284 8.63295 4.5 10.9333 4.5 13.3319V13.9377C4.5 16.8086 6.03829 19.4593 8.53089 20.8837C10.9903 22.2891 14.0097 22.2891 16.4691 20.8837C18.9617 19.4593 20.5 16.8086 20.5 13.9377V13.3319C20.5 10.9333 19.5472 8.63295 17.8511 6.93688L13.2071 2.29289ZM8.56313 8.35109L12.5 4.41421V19.9377C11.4727 19.9377 10.4455 19.6742 9.52317 19.1472C7.65372 18.0789 6.5 16.0909 6.5 13.9377V13.3319C6.5 11.4637 7.24213 9.67209 8.56313 8.35109Z" fill="currentColor"/>
</svg>
