<svg viewBox="0 0 24 24" fill="none" xmlns="http://www.w3.org/2000/svg">
<path fill-rule="evenodd" clip-rule="evenodd" d="M19.3201 19.85L19.8501 19.32C19.9467 19.2293 20.0016 19.1026 20.0016 18.97C20.0016 18.8374 19.9467 18.7107 19.8501 18.62L5.38005 4.14999C5.28932 4.05332 5.16264 3.99847 5.03005 3.99847C4.89747 3.99847 4.77079 4.05332 4.68005 4.14999L4.15005 4.67999C4.05338 4.77073 3.99854 4.89741 3.99854 5.02999C3.99854 5.16258 4.05338 5.28926 4.15005 5.37999L7.62005 8.85999C7.34123 8.94615 7.05181 8.99326 6.76005 8.99999C5.78803 8.99999 5.00005 9.78797 5.00005 10.76V13.24C5.00005 14.212 5.78803 15 6.76005 15C7.55544 15.0007 8.31798 15.3172 8.88005 15.88L12.7101 19.71C12.8963 19.8947 13.1477 19.9989 13.4101 20H14.0001C14.5523 20 15.0001 19.5523 15.0001 19V16.24L18.6201 19.85C18.7108 19.9467 18.8375 20.0015 18.9701 20.0015C19.1026 20.0015 19.2293 19.9467 19.3201 19.85ZM14.0001 3.99999C14.5523 3.99999 15.0001 4.44771 15.0001 4.99999V11.29L10.3601 6.63999L12.7101 4.28999C12.8963 4.10525 13.1477 4.0011 13.4101 3.99999H14.0001Z" fill="currentColor"/>
</svg>
