<svg viewBox="0 0 24 24" fill="none" xmlns="http://www.w3.org/2000/svg">
<path fill-rule="evenodd" clip-rule="evenodd" d="M13.0105 5V19C13.0105 19.5523 12.5623 20 12.0095 20H11.4188C11.1562 19.9989 10.9046 19.8947 10.7181 19.71L6.88408 15.88C6.32142 15.3172 5.55807 15.0007 4.76185 15C3.78881 15 3 14.212 3 13.24V10.76C3 9.78798 3.78881 9 4.76185 9C5.55807 8.9993 6.32142 8.68277 6.88408 8.12L10.7181 4.29C10.9046 4.10526 11.1562 4.0011 11.4188 4H12.0095C12.5623 4 13.0105 4.44772 13.0105 5ZM19.0168 6.73C18.9205 6.63263 18.7929 6.57242 18.6564 6.56C18.5175 6.55645 18.3833 6.61079 18.286 6.71L17.5753 7.42C17.3973 7.61178 17.3973 7.90822 17.5753 8.1C19.4978 10.3453 19.4978 13.6547 17.5753 15.9C17.3973 16.0918 17.3973 16.3882 17.5753 16.58L18.286 17.29C18.3833 17.3892 18.5175 17.4435 18.6564 17.44C18.7934 17.4293 18.9216 17.3688 19.0168 17.27C21.6611 14.2532 21.6611 9.74684 19.0168 6.73ZM15.4631 9.55C15.5672 9.4487 15.7083 9.39448 15.8535 9.4C15.998 9.41706 16.1305 9.4886 16.2239 9.6C17.2917 11.0222 17.2917 12.9778 16.2239 14.4C16.1323 14.512 15.998 14.5809 15.8535 14.59C15.7096 14.5994 15.5682 14.5487 15.4631 14.45L14.7523 13.73C14.5817 13.5635 14.5524 13.2999 14.6823 13.1C15.1223 12.4325 15.1223 11.5675 14.6823 10.9C14.5524 10.7001 14.5817 10.4365 14.7523 10.27L15.4631 9.55Z" fill="currentColor"/>
</svg>
