<svg width="24" height="24" viewBox="0 0 24 24" fill="none" xmlns="http://www.w3.org/2000/svg">
<path fill-rule="evenodd" clip-rule="evenodd" d="M7.63252 11.0133L16.271 4.1025C17.2976 3.28123 18.7775 3.3632 19.7071 4.29281C20.6368 5.22241 20.7187 6.70235 19.8975 7.72892L12.9867 16.3674C12.7986 18.9573 10.6379 21 8 21H4C3.44772 21 3 20.5523 3 20V16C3 13.3622 5.04268 11.2014 7.63252 11.0133ZM5 16C5 14.3431 6.34315 13 8 13C9.65685 13 11 14.3431 11 16C11 17.6569 9.65685 19 8 19H5V16Z" fill="currentColor"/>
</svg>
