<svg width="25" height="24" viewBox="0 0 25 24" fill="none" xmlns="http://www.w3.org/2000/svg">
<path d="M4.5 13.5C4.5 17.09 7.41 20 11 20H17.5C18.0523 20 18.5 19.5523 18.5 19C18.5 18.4477 18.0523 18 17.5 18H11C8.5 18 6.5 16 6.5 13.5C6.5 11 8.5 9 11 9H16.67L14.2933 11.3844C13.9047 11.7743 13.9052 12.4052 14.2944 12.7944C14.6841 13.1841 15.3159 13.1841 15.7056 12.7944L19.4 9.1C20.0075 8.49249 20.0075 7.50751 19.4 6.9L15.705 3.20501C15.3152 2.81524 14.6836 2.81412 14.2925 3.20251C13.8994 3.59284 13.8983 4.22829 14.29 4.62L16.67 7H11C7.41 7 4.5 9.91 4.5 13.5Z" fill="currentColor"/>
</svg>
