<svg xmlns="http://www.w3.org/2000/svg" stroke="currentColor" fill="currentColor" viewBox="0 0 24 24"><path d="M19 1.38h-2.65V.05H19v1.33Zm.02 21.25v1.33h-2.7v-1.33h2.7ZM10.83 0h2.62v1.37h-2.62V0ZM5.25 23.96v-1.35H7.9v1.35H5.25Zm8.2.04h-2.63v-1.37h2.63V24ZM5.25 1.34V.03h2.67c.02.42.03.8.05 1.31H5.25ZM24 4.96v2.7h-1.31v-2.7H24Zm-1.36 8.3V10.6h1.35v2.66h-1.35Zm.03 5.67v-2.71c.41-.02.79-.03 1.29-.05v2.76M1.36 4.96v2.7H.04v-2.7h1.31ZM0 13.26V10.6h1.35v2.66H0Zm.03 5.67v-2.71c.41-.02.79-.03 1.29-.05v2.76"/><circle cx="12.58" cy="12.3" r="1.5"/></svg>
