<svg width="24" height="24" viewBox="0 0 24 24" fill="none" xmlns="http://www.w3.org/2000/svg">
<path fill-rule="evenodd" clip-rule="evenodd" d="M12.5691 2C13.2851 1.9998 13.9708 2.29982 14.4699 2.83174C14.9638 3.35807 15.2334 4.06709 15.2192 4.80031C15.2227 4.93362 15.259 5.06389 15.3247 5.1787L15.3272 5.18297C15.4377 5.37811 15.6185 5.51973 15.8298 5.57658C16.0412 5.63343 16.2657 5.60086 16.4538 5.48604L16.4633 5.48028C17.7309 4.72776 19.3474 5.18024 20.0768 6.49171C20.0768 6.49169 20.0768 6.49173 20.0768 6.49171L20.643 7.50961C20.6609 7.54166 20.6768 7.57466 20.6908 7.60844C21.3456 8.90138 20.9075 10.5091 19.6813 11.2521L19.6742 11.2565C19.5511 11.3295 19.4491 11.4351 19.3786 11.5626L19.3752 11.5687C19.2651 11.7646 19.2348 11.9979 19.2912 12.217C19.3476 12.436 19.486 12.6228 19.6757 12.7358C20.2851 13.0991 20.7296 13.699 20.9108 14.4028C21.092 15.1067 20.9948 15.8562 20.6409 16.4856L20.635 16.4961L20.0382 17.5263C19.3032 18.8278 17.6918 19.2717 16.4297 18.5195C16.3091 18.4483 16.1738 18.4084 16.0353 18.4028C15.8194 18.4045 15.6126 18.494 15.4598 18.6523C15.3046 18.8131 15.2179 19.0314 15.219 19.2588L15.219 19.2678C15.2121 20.7789 14.0276 22 12.5691 22H11.4283C9.96682 22 8.78166 20.7743 8.77837 19.261C8.77642 19.1244 8.73997 18.9906 8.67262 18.8731L8.6653 18.86C8.5575 18.6648 8.37891 18.5223 8.16922 18.4642C7.95952 18.4061 7.73609 18.4371 7.5486 18.5505L7.53495 18.5585C6.91995 18.9157 6.19292 19.0042 5.51474 18.8045C4.83968 18.6058 4.26842 18.1378 3.92612 17.5034L3.35555 16.4839L3.3546 16.4822C2.626 15.1741 3.05797 13.5019 4.31981 12.7456C4.57679 12.5919 4.7358 12.3074 4.7358 12C4.7358 11.6926 4.57749 11.4085 4.3205 11.2548L4.31793 11.2533C3.05657 10.4931 2.62578 8.81954 3.35431 7.50966L3.36534 7.49037L3.96813 6.46382C4.70036 5.16054 6.31147 4.71261 7.57571 5.46309L7.58774 5.47036C7.70084 5.5399 7.82949 5.57764 7.96095 5.57989C8.41079 5.57732 8.77688 5.20402 8.78667 4.73829C8.78626 4.01435 9.06277 3.31955 9.55591 2.8062C10.0517 2.29012 10.7255 2 11.4283 2H12.5691C12.5692 2 12.5689 2 12.5691 2ZM13.1653 4.14554C13.0089 3.97878 12.7939 3.88474 12.5694 3.88484H11.4283C11.2095 3.88484 10.9998 3.97515 10.8455 4.13579C10.6912 4.29642 10.605 4.51415 10.606 4.74078L10.606 4.75884C10.5852 6.25962 9.40481 7.4649 7.95602 7.46474L7.94666 7.46474C7.49621 7.45989 7.05492 7.33266 6.66683 7.09592C6.27016 6.86365 5.76636 7.00592 5.53857 7.41549L5.52753 7.4348L4.92633 8.45865C4.70438 8.86756 4.83966 9.38618 5.23146 9.62325C6.05061 10.1138 6.55516 11.0197 6.55516 12C6.55516 12.9807 6.05018 13.8869 5.23042 14.3774C4.83822 14.6128 4.70388 15.1326 4.93004 15.5395C4.92991 15.5393 4.93017 15.5397 4.93004 15.5395L5.50401 16.565L5.51272 16.5809C5.61983 16.7812 5.79956 16.9289 6.01212 16.9915C6.22289 17.0536 6.44871 17.0268 6.64042 16.9172C7.2452 16.5548 7.96437 16.4562 8.63954 16.6434C9.31563 16.8309 9.89179 17.2894 10.2409 17.9176C10.4699 18.32 10.593 18.7777 10.5977 19.2449L10.5978 19.2547C10.5978 19.7299 10.9696 20.1152 11.4283 20.1152H12.5691C13.0252 20.1152 13.3958 19.7342 13.3996 19.2621C13.3977 18.5338 13.6761 17.8346 14.1733 17.3195C14.6719 16.8031 15.349 16.5145 16.054 16.518L16.0739 16.5183C16.5165 16.5306 16.9493 16.6562 17.3337 16.8838L17.3364 16.8854C17.7327 17.122 18.239 16.9821 18.469 16.5725L18.4752 16.5615L19.0712 15.5325C19.1794 15.3375 19.2088 15.106 19.1529 14.8885C19.0965 14.6694 18.9581 14.4827 18.7684 14.3696C18.159 14.0064 17.7144 13.4064 17.5333 12.7026C17.3524 11.9999 17.4489 11.2516 17.8015 10.6228C18.0321 10.207 18.365 9.86201 18.7663 9.62302C19.1565 9.38392 19.2898 8.86432 19.0648 8.45591C19.051 8.43089 19.0384 8.4053 19.0269 8.37922L18.5005 7.43281C18.2725 7.02292 17.7681 6.88068 17.3713 7.1137C16.7681 7.47961 16.0494 7.58297 15.3726 7.40093C14.6944 7.21849 14.1139 6.76437 13.759 6.13855C13.5283 5.7351 13.4044 5.27577 13.3997 4.80685C13.3996 4.79457 13.3997 4.78229 13.4 4.77001C13.4065 4.53755 13.3218 4.31229 13.1653 4.14554ZM12.0028 10.4581C11.1808 10.4581 10.5145 11.1484 10.5145 12C10.5145 12.8516 11.1808 13.5419 12.0028 13.5419C12.8249 13.5419 13.4912 12.8516 13.4912 12C13.4912 11.1484 12.8249 10.4581 12.0028 10.4581ZM8.6951 12C8.6951 10.1074 10.176 8.57322 12.0028 8.57322C13.8297 8.57322 15.3106 10.1074 15.3106 12C15.3106 13.8926 13.8297 15.4268 12.0028 15.4268C10.176 15.4268 8.6951 13.8926 8.6951 12Z" fill="currentColor"/>
</svg>
