<svg width="24" height="24" viewBox="0 0 24 24" fill="none" xmlns="http://www.w3.org/2000/svg">
<path d="M20 13.5C20 17.09 17.09 20 13.5 20H7C6.44772 20 6 19.5523 6 19C6 18.4477 6.44772 18 7 18H13.5C16 18 18 16 18 13.5C18 11 16 9 13.5 9H7.83L10.2067 11.3844C10.5953 11.7743 10.5948 12.4052 10.2056 12.7944C9.8159 13.1841 9.1841 13.1841 8.79443 12.7944L5.1 9.1C4.49249 8.49249 4.49249 7.50751 5.1 6.9L8.79499 3.20501C9.18476 2.81524 9.81635 2.81412 10.2075 3.20251C10.6006 3.59284 10.6017 4.22829 10.21 4.62L7.83 7H13.5C17.09 7 20 9.91 20 13.5Z" fill="currentColor"/>
</svg>
