<svg width="20" height="20" viewBox="0 0 20 20" fill="none" xmlns="http://www.w3.org/2000/svg">
<path fill-rule="evenodd" clip-rule="evenodd" d="M0 10C0 4.4768 4.4768 0 10 0C15.5232 0 20 4.47679 20 10C20 15.5221 15.5233 20 10 20C4.47672 20 0 15.5221 0 10ZM10 2C5.58136 2 2 5.58136 2 10C2 14.4177 5.58144 18 10 18C14.4185 18 18 14.4177 18 10C18 5.58137 14.4186 2 10 2ZM6.80273 8.1933C6.80273 6.31585 8.31393 4.80469 10.1914 4.80469C12.0582 4.80469 13.5791 6.31398 13.5791 8.1933C13.5791 9.53019 12.809 10.4713 11.8367 11.0094C11.7763 11.0438 11.7199 11.0756 11.667 11.1054C11.404 11.2536 11.229 11.3522 11.0853 11.4814C10.9602 11.594 10.945 11.6539 10.9461 11.7365C10.9534 12.2887 10.5116 12.7423 9.95933 12.7495C9.40709 12.7568 8.95354 12.315 8.94629 11.7627C8.93567 10.954 9.31988 10.3795 9.74765 9.99462C10.0734 9.70151 10.4788 9.47636 10.7372 9.33281C10.7798 9.30919 10.8183 9.28778 10.8519 9.26864L10.8648 9.26142C11.3584 8.98945 11.5791 8.64167 11.5791 8.1933C11.5791 7.42232 10.9574 6.80469 10.1914 6.80469C9.41847 6.80469 8.80273 7.42045 8.80273 8.1933C8.80273 8.74558 8.35501 9.1933 7.80273 9.1933C7.25044 9.1933 6.80273 8.74558 6.80273 8.1933ZM9.9473 13.1963C10.4996 13.1963 10.9473 13.644 10.9473 14.1963V14.2245C10.9473 14.7768 10.4996 15.2245 9.9473 15.2245C9.39501 15.2245 8.9473 14.7768 8.9473 14.2245V14.1963C8.9473 13.644 9.39501 13.1963 9.9473 13.1963Z" fill="currentColor"/>
</svg>
